<?xml version="1.0" encoding="UTF-8"?><svg width="17px" height="17px" version="1.1" xmlns="http://www.w3.org/2000/svg" xmlns:xlink="http://www.w3.org/1999/xlink"><title>icon-备注</title><g id="-" stroke="none" stroke-width="1" fill="none" fill-rule="evenodd"><g id="可视化分析-作图步骤一-多组学系统分析结果文件" transform="translate(-1188.000000, -581.000000)" fill="#BEBDBD" fill-rule="nonzero"><g id="icon-备注" transform="translate(1188.000000, 581.000000)"><path d="M10.7438346,16.375716 C10.7076499,16.4425472 10.6299379,16.4984347 10.5128842,16.5320097 L8.95592352,16.9764746 C8.67640305,17.0560559 8.52581169,16.9272809 8.61824044,16.6875597 L9.13759969,15.3555673 C9.17657713,15.2547361 9.24299664,15.1885423 9.3213158,15.1571986 L14.2313079,10.9569877 L15.6548224,12.1747614 L10.7438346,16.375716 Z M7.10302575,15.8267223 L14.2311622,9.72869533 L14.2311622,4.33737959 L10.6737724,4.33737959 C9.88788511,4.33716709 9.25074356,3.79218964 9.25062213,3.11992471 L9.25062213,0 L2.04681359,0 C0.916176328,0 0,0.783721176 0,1.75042609 L0,14.4567774 C0,14.8201736 0.169023677,15.1686736 0.469210699,15.425501 C0.769616286,15.6825198 1.17690021,15.8267223 1.60154791,15.8267223 L7.10302575,15.8267223 L7.10302575,15.8267223 Z M10.7798978,0.229202478 L13.9637842,2.95289972 C14.4156311,3.33924594 14.263097,3.65247091 13.6253726,3.65247091 L11.1177024,3.65247091 C10.479468,3.65225841 9.96180868,3.20991845 9.96132298,2.664091 L9.96132298,0.519264951 C9.96132298,-0.0270937474 10.3278081,-0.156187485 10.7790236,0.229946228 L10.7798978,0.229202478 Z M2.84630044,6.69621437 C2.84654329,6.36001815 3.16504121,6.08759318 3.55799697,6.08727443 L10.6737481,6.08727443 C11.0667038,6.08769943 11.3848375,6.36001815 11.3849589,6.69621437 C11.3845946,7.03209184 11.066461,7.30441056 10.6737481,7.30472931 L3.55814268,7.30472931 C3.16530834,7.30451681 2.84693185,7.03219809 2.84630044,6.69621437 Z M2.84630044,9.13080539 C2.84690756,8.79482167 3.16528406,8.52271545 3.55799697,8.5223967 L10.6737481,8.5223967 C11.066461,8.52271545 11.3845946,8.79503417 11.3849589,9.13080539 C11.3848375,9.46700161 11.066461,9.73932033 10.6737481,9.73963908 L3.55814268,9.73963908 C3.16530834,9.73942658 2.84656757,9.46721411 2.84630044,9.13080539 Z M14.5571885,10.702944 L15.3802318,9.99922906 C15.5882329,9.82104782 15.925576,9.82072907 16.1341842,9.99827281 L16.8445451,10.605619 C17.0521819,10.784119 17.0518177,11.0728215 16.8434523,11.2510027 L16.020409,11.9554614 L14.5575527,10.7031565 L14.5571885,10.702944 L14.5571885,10.702944 Z" id="形状"/></g></g></g></svg>