<?xml version="1.0" encoding="UTF-8"?><svg width="18px" height="18px" version="1.1" xmlns="http://www.w3.org/2000/svg" xmlns:xlink="http://www.w3.org/1999/xlink"><title>wenti-2</title><g id="--------" stroke="none" stroke-width="1" fill="none" fill-rule="evenodd"><g id="文件传输管理" transform="translate(-1782.000000, -16.000000)" fill="#2F54EB" fill-rule="nonzero" stroke="#2F54EB" stroke-width="0.3"><g id="wenti-2" transform="translate(1783.000000, 17.000000)"><path d="M8,16 C6.92080537,16 5.87203579,15.7888143 4.88590604,15.3718121 C3.93378076,14.9691275 3.07829978,14.3928412 2.34272931,13.6572707 C1.60894855,12.9234899 1.03087248,12.0680089 0.628187919,11.114094 C0.211185682,10.1279642 0,9.07919463 0,8 C0,6.92080537 0.211185682,5.87203579 0.628187919,4.88590604 C1.03087248,3.93378076 1.60715884,3.07829978 2.34272931,2.34272931 C3.07651007,1.60894855 3.93199105,1.03087248 4.88590604,0.628187919 C5.87203579,0.211185682 6.92080537,0 8,0 C9.07919463,0 10.1279642,0.211185682 11.114094,0.628187919 C12.0662192,1.03087248 12.9217002,1.60715884 13.6572707,2.34272931 C14.3910515,3.07651007 14.9691275,3.93199105 15.3718121,4.88590604 C15.7888143,5.87203579 16,6.92080537 16,8 C16,9.07919463 15.7888143,10.1279642 15.3718121,11.114094 C14.9691275,12.0662192 14.3928412,12.9217002 13.6572707,13.6572707 C12.9234899,14.3910515 12.0680089,14.9691275 11.114094,15.3718121 C10.1279642,15.7870246 9.07919463,16 8,16 Z M8,1.14541387 C6.16912752,1.14541387 4.44742729,1.85771812 3.15346756,3.15346756 C1.85771812,4.44742729 1.14541387,6.16912752 1.14541387,8 C1.14541387,9.83087248 1.85771812,11.550783 3.15346756,12.8465324 C4.44742729,14.1404922 6.16912752,14.8545861 8,14.8545861 C9.83087248,14.8545861 11.5525727,14.1404922 12.8465324,12.8465324 C14.1404922,11.5525727 14.8545861,9.83087248 14.8545861,8 C14.8545861,6.16912752 14.1422819,4.44742729 12.8465324,3.15346756 C11.5525727,1.85771812 9.83087248,1.14541387 8,1.14541387 Z" id="形状"/><path d="M5,6.3362629 C5.01804671,5.71927143 5.09023355,5.2520698 5.22016985,4.93109158 C5.35010616,4.61011336 5.55764331,4.32301618 5.84458599,4.07158324 C6.12972399,3.81836709 6.44915074,3.632913 6.7992569,3.51343778 C7.14936306,3.39396255 7.52112527,3.33333333 7.91093418,3.33333333 C8.69957537,3.33333333 9.35467091,3.56158451 9.87983015,4.01987008 C10.4031847,4.47815565 10.6666667,5.08801427 10.6666667,5.84944593 C10.6666667,6.1918227 10.5998938,6.50210164 10.4645435,6.78028277 C10.3309979,7.05846389 10.0440552,7.40440708 9.60732484,7.81989555 C9.17059448,8.23538403 8.88004246,8.52961406 8.73747346,8.70615208 C8.59490446,8.88090689 8.4866242,9.09132595 8.4126327,9.33562603 C8.33864119,9.57992612 8.30615711,9.90625398 8.31518047,10.318176 L7.17101911,10.318176 C7.17101911,9.83849191 7.21072187,9.45510126 7.28832272,9.16978729 C7.36592357,8.8826901 7.48322718,8.63304038 7.63842887,8.4190549 C7.79363057,8.20506942 8.07515924,7.89122405 8.48301486,7.47573558 C8.89087049,7.0602471 9.15254777,6.75888422 9.26985138,6.56986371 C9.38715499,6.3808432 9.44490446,6.10087887 9.44490446,5.72818749 C9.44490446,5.35549612 9.31135881,5.02560183 9.04246285,4.74028786 C8.77176221,4.45140746 8.38195329,4.30696727 7.87123142,4.30696727 C6.71985138,4.30696727 6.14235669,4.98280474 6.14235669,6.3362629 L5,6.3362629 Z M8.40360934,12.6666667 L7.14394904,12.6666667 L7.14394904,11.3577888 L8.40360934,11.3577888 L8.40360934,12.6666667 Z" id="形状"/></g></g></g></svg>