<?xml version="1.0" encoding="UTF-8"?><svg width="32px" height="32px" version="1.1" xmlns="http://www.w3.org/2000/svg" xmlns:xlink="http://www.w3.org/1999/xlink"><title>多组学logo-svg</title><defs><polygon id="path-1" points="0 0 13.1823937 0 13.1823937 10.2722355 0 10.2722355"/><polygon id="path-3" points="0 -1.96860325e-15 13.1823937 -1.96860325e-15 13.1823937 10.2722355 0 10.2722355"/><polygon id="path-5" points="0 0 9.38676194 0 9.38676194 13.5687127 0 13.5687127"/></defs><g id="多组学" stroke="none" stroke-width="1" fill="none" fill-rule="evenodd"><g id="可视化分析-步骤2（展开）-小提琴图1366" transform="translate(-48.000000, -640.000000)"><g id="多组学logo-svg" transform="translate(48.000000, 640.000000)"><path d="M17.7885956,16.1245506 C17.6503131,16.1166545 17.5347337,16.040187 17.4744378,15.9329662 L14.3875531,16.3017281 L14.5907016,16.3466113 C14.5389563,16.4642216 14.4233768,16.5531567 14.2794922,16.5703342 C13.9949664,16.6042736 13.7433157,16.3413472 13.877323,16.0381091 C13.896488,15.9946113 13.9280364,15.956239 13.9682828,15.9278407 C14.2013582,15.7628537 14.4695201,15.850819 14.5738954,16.0390788 L17.6448585,15.6722563 C17.6566523,15.670871 17.6678564,15.6730874 17.6790605,15.675581 L17.6855471,15.6712866 L17.4915388,15.5683602 C17.4938976,15.564897 17.4961089,15.5612952 17.4986151,15.5579706 C17.5726213,15.4592 17.6976358,15.3976935 17.8353286,15.4057281 C18.0465854,15.4177801 18.2074236,15.5885853 18.1944504,15.7870961 C18.1816246,15.9856069 17.9998524,16.1367411 17.7885956,16.1245506 M17.6955719,17.5889316 C17.4819563,17.6144208 17.284115,17.499858 17.2055387,17.3214338 L14.7258883,17.6176069 C14.7123254,17.6192693 14.6992048,17.6176069 14.6866738,17.6145593 L14.6837254,17.6166372 L14.82761,17.6929662 C14.8258409,17.6954597 14.8242192,17.6980918 14.8223028,17.7005853 C14.7674615,17.7737281 14.6747326,17.8194424 14.5725686,17.8134857 C14.4160057,17.8044814 14.2967407,17.6778667 14.3063232,17.5306113 C14.3159057,17.3834944 14.45065,17.2714251 14.6073604,17.2804294 C14.693013,17.2854165 14.7648079,17.327529 14.8130151,17.3870961 L17.4596955,17.0708364 L17.4624965,17.0680658 L17.2052439,16.9861957 C17.2073078,16.9816242 17.2090769,16.9769143 17.2112882,16.9723429 C17.2760068,16.8382476 17.4108986,16.7379532 17.5777811,16.7180052 C17.833707,16.6873905 18.0675194,16.8576416 18.1000999,17.0981264 C18.1325329,17.3386113 17.9514978,17.5583169 17.6955719,17.5889316 M17.1368397,18.8093645 C16.9364922,18.8347152 16.7501499,18.7284641 16.6749643,18.5616762 L15.5734216,18.7013126 C15.5166638,18.708516 15.4643288,18.6711134 15.4566628,18.6176416 C15.4489968,18.5643082 15.4889484,18.5151307 15.5457061,18.5079273 L16.6300003,18.3705074 L16.9142314,18.3222996 L16.6723107,18.2472173 C16.6740797,18.2429229 16.6757014,18.2383515 16.6777653,18.2341957 C16.7374715,18.1079965 16.8632231,18.0129662 17.0196386,17.9930182 C17.2594954,17.9626805 17.4801873,18.1207411 17.5124728,18.3461264 C17.5449058,18.5715117 17.3766965,18.7788883 17.1368397,18.8093645 M16.3482755,19.978542 C16.1271414,20.0048623 15.9250248,19.857884 15.8970145,19.6500918 C15.8688568,19.4422996 16.0252723,19.2523775 16.2464064,19.2259186 C16.4676879,19.1994597 16.6696571,19.3465766 16.6978148,19.5543688 C16.7259725,19.762161 16.5694096,19.9520831 16.3482755,19.978542 M15.8100351,21.0697281 C15.6710154,21.0863515 15.543937,20.9939532 15.5262463,20.8633212 C15.5085556,20.7326892 15.607034,20.6132779 15.7460536,20.5966545 C15.8850733,20.5800312 16.0120042,20.672568 16.029695,20.8030615 C16.0473857,20.9336935 15.9490547,21.0531048 15.8100351,21.0697281 M14.2797871,14.4374165 C14.4848521,14.412897 14.6741429,14.5181784 14.7586161,14.6842736 L17.2316325,14.3887931 C17.2428367,14.3874078 17.2537459,14.3896242 17.2643604,14.393226 L17.1279943,14.3210528 C17.1297634,14.3184208 17.1313851,14.3157887 17.1333016,14.3132952 C17.1881428,14.2401524 17.2808717,14.1945766 17.3830357,14.2003948 C17.5397461,14.2093991 17.6588636,14.3360139 17.6492811,14.4832693 C17.6396987,14.6303861 17.5049543,14.7424554 17.3483913,14.7334511 C17.2683408,14.7288797 17.201116,14.6914771 17.1529088,14.6385593 L14.5178748,14.9532952 L14.5128624,14.9582823 L14.7701151,15.0401524 C14.7680512,15.0447238 14.7662821,15.0494338 14.7642182,15.0540052 C14.6993522,15.1879619 14.5644604,15.2883948 14.3977253,15.3083429 C14.141652,15.338819 13.9078395,15.1687065 13.8752591,14.9282216 C13.8428261,14.6877368 14.0238612,14.4678926 14.2797871,14.4374165 M14.8212708,13.2082563 C15.0216183,13.1844294 15.2072235,13.2919273 15.2809349,13.4592693 L15.2757751,13.4643948 L16.3792343,13.3326545 C16.4361394,13.3258667 16.4880322,13.3636848 16.495256,13.4170182 C16.5024797,13.47049 16.4622333,13.5192519 16.4053281,13.5261784 L15.0487441,13.6882563 L15.0397513,13.6969835 L15.2812297,13.7737281 C15.2793132,13.778161 15.2776916,13.7825939 15.2756277,13.7867498 C15.2148895,13.9125333 15.0882534,14.0067325 14.9316904,14.0254338 C14.6916862,14.0541091 14.4721738,13.8943861 14.4416572,13.6687238 C14.4111407,13.4432 14.5811192,13.2370701 14.8212708,13.2082563 M15.5809402,12.0732952 C15.8022217,12.0468364 16.0041908,12.1939532 16.0323486,12.4017455 C16.0605063,12.6095377 15.9039434,12.7994597 15.6828093,12.8259186 C15.4616752,12.852239 15.2595586,12.7052606 15.2315483,12.4974684 C15.2033905,12.2895377 15.359806,12.0997541 15.5809402,12.0732952 M16.1163795,10.9604987 C16.2553992,10.9440139 16.3824776,11.0364121 16.4001683,11.1670442 C16.4177116,11.2976762 16.3193806,11.4169489 16.180361,11.4335723 C16.0413414,11.4501957 15.9144104,11.3577974 15.8967197,11.2271654 C15.8790289,11.0965333 15.9773599,10.9771221 16.1163795,10.9604987 M16.0177537,10.2110615 C12.6063916,10.2110615 9.84103591,12.8097108 9.84103591,16.0151134 C9.84103591,19.2206545 12.6063916,21.8191654 16.0177537,21.8191654 C19.4291158,21.8191654 22.1944715,19.2206545 22.1944715,16.0151134 C22.1944715,12.8097108 19.4291158,10.2110615 16.0177537,10.2110615" id="Fill-1" fill="#FFFFFF"/><g id="编组" transform="translate(9.648325, 0.000000)"><mask id="mask-2" fill="white"><use xlink:href="#path-1"/></mask><g id="Clip-4"/><path d="M11.4140579,2.11486753 C10.8983732,2.11486753 10.4356132,2.32362944 10.1124626,2.65443463 C9.24782826,2.69294545 7.18523675,2.66080693 5.78619498,1.64027013 C5.7739589,0.732495238 4.98804829,-4.15584416e-05 4.01903864,-4.15584416e-05 C3.04236301,-4.15584416e-05 2.25070292,0.743993074 2.25070292,1.66174199 C2.25070292,2.13038268 2.45797928,2.55289351 2.79012271,2.85502338 C2.79012271,2.85502338 3.16398677,5.39465974 1.61722742,6.95601039 C0.711462126,7.02832208 0,7.74077229 0,8.61045195 C0,9.52820087 0.791807517,10.2722355 1.76833572,10.2722355 C2.74501135,10.2722355 3.53681887,9.52820087 3.53681887,8.61045195 C3.53681887,8.08390649 3.27529094,7.6152658 2.86840418,7.31091948 C2.86339181,6.42614026 3.01346816,4.63857316 4.17987685,3.32338701 L4.15997478,3.31673766 C4.60460175,3.28362944 5.00249572,3.09661645 5.29365562,2.81166407 C5.99332393,2.76082424 7.68691632,2.76664242 9.65029233,3.69214892 C9.64867068,3.72027013 9.64572222,3.74797576 9.64572222,3.77651255 C9.64572222,4.69426147 10.4373823,5.43815758 11.4140579,5.43815758 C12.3907336,5.43815758 13.1823937,4.69426147 13.1823937,3.77651255 C13.1823937,2.85876364 12.3907336,2.11486753 11.4140579,2.11486753" id="Fill-3" fill="#FFFFFF" mask="url(#mask-2)"/></g><path d="M6.31665952,4.82573853 C6.02726869,5.22691602 5.95164082,5.7038684 6.06176561,6.14092468 C5.61065203,6.83508918 4.42507839,8.42151342 2.74121589,8.93697662 C1.93451868,8.43730563 0.848307955,8.63775584 0.304760326,9.39134892 C-0.243209986,10.1510372 -0.0321006272,11.1843186 0.776365659,11.6992277 C1.18929674,11.9621541 1.67785569,12.037929 2.13029607,11.9491325 C2.13029607,11.9491325 4.57721865,13.0829853 5.08494255,15.1622926 C4.640463,15.907297 4.86896825,16.8603706 5.63512421,17.3484052 C6.44359049,17.8633143 7.54321668,17.6648035 8.091187,16.9051152 C8.63915731,16.1454268 8.42790053,15.112284 7.61943424,14.5973749 C7.15549489,14.3018944 6.5960256,14.2424658 6.09965325,14.3880589 C5.31728079,13.8955913 3.82683692,12.7760069 3.32250374,11.1308468 L3.30555013,11.1426216 C3.52594712,10.7781541 3.58432652,10.3638165 3.49675741,9.97732294 C3.84438023,9.40464762 4.79967956,8.0905697 6.71646998,7.08263896 C6.74049988,7.09953939 6.76320299,7.11754805 6.78841227,7.13347879 C7.59687856,7.64838788 8.69635733,7.45001558 9.24432764,6.69032727 C9.79229795,5.93063896 9.58104117,4.89735758 8.77257488,4.38244848 C7.9641086,3.86753939 6.86462983,4.06605022 6.31665952,4.82573853" id="Fill-5" fill="#FFFFFF"/><path d="M0.800867318,18.3879342 C1.02568699,18.8240208 1.42741395,19.1242113 1.88530897,19.2533195 C2.29912459,19.9675706 3.16788677,21.7257697 2.80065674,23.3537524 C1.93661208,23.7600554 1.57778514,24.7441593 2.00044612,25.5634147 C2.42635041,26.3893195 3.48410854,26.7343931 4.36289548,26.3341853 C4.81179771,26.1298563 5.12610298,25.7702372 5.27057726,25.3575619 C5.27057726,25.3575619 7.5395606,23.9339082 9.70947586,24.5610251 C10.1737101,25.2953628 11.1663073,25.5862719 11.9992458,25.2069818 C12.8780327,24.806774 13.2452628,23.8128346 12.8193585,22.9870684 C12.3934542,22.1611636 11.3356961,21.81609 10.4569091,22.2162978 C9.95242853,22.4459775 9.61777892,22.8713974 9.50367372,23.3482113 C8.65849917,23.7383065 6.88117066,24.3910511 5.11298236,23.9782372 L5.11534112,23.9979082 C4.88978434,23.6363498 4.53714915,23.381458 4.13719127,23.2595532 C3.7833767,22.6900641 3.05039085,21.2554667 3.08061251,19.1916745 C3.10818057,19.1805922 3.13604346,19.1710338 3.16346409,19.1587048 C4.04225102,18.758497 4.40948106,17.7645576 3.98357678,16.9386528 C3.55767249,16.1127481 2.49991436,15.7676745 1.62112742,16.1678823 C0.742193069,16.56809 0.374963033,17.5620294 0.800867318,18.3879342" id="Fill-7" fill="#FFFFFF"/><g id="编组" transform="translate(9.494976, 21.727765)"><mask id="mask-4" fill="white"><use xlink:href="#path-3"/></mask><g id="Clip-10"/><path d="M1.76833572,8.15736797 C2.28402046,8.15736797 2.74678043,7.94860606 3.06993106,7.61780087 C3.93456541,7.57929004 5.99715692,7.61142857 7.39619869,8.63196537 C7.40843477,9.53974026 8.19434538,10.2722771 9.16335503,10.2722771 C10.1400307,10.2722771 10.9316908,9.52824242 10.9316908,8.61049351 C10.9316908,8.14185281 10.7244144,7.71934199 10.392271,7.41721212 C10.392271,7.41721212 10.0184069,4.87757576 11.5651663,3.31622511 C12.4709315,3.24391342 13.1823937,2.5314632 13.1823937,1.66178355 C13.1823937,0.744034632 12.3905862,-1.96860325e-15 11.4140579,-1.96860325e-15 C10.4373823,-1.96860325e-15 9.6455748,0.744034632 9.6455748,1.66178355 C9.6455748,2.188329 9.90710273,2.6569697 10.3139895,2.96131602 C10.3190019,3.84609524 10.1689255,5.63366234 9.00251682,6.94884848 L9.02241889,6.95549784 C8.57779192,6.98860606 8.17989795,7.17561905 7.88873805,7.46057143 C7.18906974,7.51141126 5.49547735,7.50559307 3.53210134,6.58008658 C3.53372299,6.55196537 3.53667145,6.52425974 3.53667145,6.49572294 C3.53667145,5.57797403 2.74501135,4.83407792 1.76833572,4.83407792 C0.791660095,4.83407792 0,5.57797403 0,6.49572294 C0,7.41347186 0.791660095,8.15736797 1.76833572,8.15736797" id="Fill-9" fill="#FFFFFF" mask="url(#mask-4)"/></g><g id="编组" transform="translate(22.613238, 14.102141)"><mask id="mask-6" fill="white"><use xlink:href="#path-5"/></mask><g id="Clip-12"/><path d="M3.26410405,12.7934992 C3.53934229,12.383733 3.59831139,11.9045641 3.47300206,11.4711096 C3.89979088,10.7635079 5.02934389,9.14148188 6.69433628,8.57434768 C7.51798711,9.04894508 8.59667927,8.81538664 9.1136908,8.04530872 C9.63483018,7.26913556 9.38789709,6.24305764 8.5618875,5.75322214 C8.13996363,5.50317885 7.64904592,5.44236499 7.19984884,5.54515287 C7.19984884,5.54515287 4.71474377,4.48707495 4.13493015,2.4245295 C4.55316845,1.66636499 4.29164052,0.720771921 3.50882579,0.256564129 C2.6828162,-0.233132841 1.59070856,-0.000959680804 1.06956919,0.775213479 C0.548429817,1.55124811 0.795510323,2.57746456 1.62151992,3.06716153 C2.09548401,3.34823512 2.65672237,3.39048621 3.14778751,3.22965504 C3.94681874,3.69774162 5.47559251,4.77091911 6.03683087,6.39959443 L6.05348964,6.38740396 C5.84591843,6.75838231 5.80198645,7.17438231 5.90297103,7.55796673 C5.57539771,8.14103166 4.66638911,9.48378491 2.78586469,10.5501745 C2.76124509,10.5339667 2.7379523,10.5166507 2.71215332,10.5014126 C1.88629115,10.0117156 0.794183519,10.2438888 0.273044146,11.020062 C-0.248095228,11.7962351 -0.00101472151,12.822313 0.824847448,13.3121485 C1.65085704,13.8018455 2.74296467,13.5696724 3.26410405,12.7934992" id="Fill-11" fill="#FFFFFF" mask="url(#mask-6)"/></g><path d="M31.0563765,13.6267636 C30.8305249,13.1910926 30.4280608,12.8917333 29.969871,12.7637333 C29.5544337,12.0501749 28.6815437,10.2937766 29.0449407,8.6651013 C29.9079534,8.2569974 30.2644216,7.27220087 29.8399916,6.45377662 C29.4121708,5.62870303 28.3536755,5.28584589 27.4756257,5.68785455 C27.0273132,5.89329177 26.7138924,6.25346494 26.5703027,6.66641732 C26.5703027,6.66641732 24.3047101,8.09478095 22.1333206,7.47209697 C21.6674647,6.738729 20.6741303,6.44989784 19.8420764,6.83085022 C18.964174,7.23285887 18.5993027,8.22762944 19.0271235,9.0525645 C19.4549443,9.87749957 20.5134396,10.2203567 21.3914894,9.81834805 C21.8952329,9.5876987 22.2288505,9.16158615 22.3419238,8.68449524 C23.1862138,8.29259913 24.9619206,7.63625281 26.7311409,8.04546494 L26.7287821,8.02565541 C26.9552234,8.38679827 27.3084483,8.6409974 27.708701,8.762071 C28.063695,9.33086753 28.8000716,10.7639411 28.7748623,12.8277333 C28.7472942,12.8388156 28.7192839,12.8485126 28.6920107,12.8609801 C27.8141083,13.2629887 27.449237,14.2576208 27.8770578,15.0826944 C28.3048786,15.9076294 29.3635213,16.2504866 30.2414237,15.8484779 C31.1193261,15.4464693 31.4841973,14.4516987 31.0563765,13.6267636" id="Fill-13" fill="#FFFFFF"/><path d="M23.0385699,20.5021645 C22.9975864,20.5021645 22.9560132,20.4914978 22.9190101,20.4691948 L20.8550917,19.2224416 C20.7524855,19.160381 20.7227061,19.0318268 20.7887515,18.9352727 C20.8547969,18.8387186 20.9919,18.8107359 21.0943588,18.8727965 L23.1582772,20.1195498 C23.2610308,20.1816104 23.2908102,20.3101645 23.2247648,20.4067186 C23.1826019,20.4685022 23.1112493,20.5021645 23.0385699,20.5021645" id="Fill-15" fill="#FFFFFF"/></g></g></g></svg>