<?xml version="1.0" encoding="UTF-8"?><svg width="16px" height="16px" version="1.1" xmlns="http://www.w3.org/2000/svg" xmlns:xlink="http://www.w3.org/1999/xlink"><!--Generator: Sketch 59 (86127) - https://sketch.com--><title>guanbi-2</title><desc>Created with Sketch.</desc><g id="基础数据库" stroke="none" stroke-width="1" fill="none" fill-rule="evenodd"><g id="核酸结果详情GenBank-删除弹框" transform="translate(-1170.000000, -586.000000)" fill="#FFFFFF" fill-rule="nonzero"><g id="删除弹框" transform="translate(713.000000, 570.000000)"><g id="guanbi-2" transform="translate(457.000000, 16.000000)"><g id="icon-关闭" transform="translate(0.014463, 0.014463)"><path d="M8.9110273,7.9868443 L15.7829227,1.11560247 C15.9480121,0.950513073 16.0124869,0.709890037 15.95206,0.484373729 C15.891633,0.258857421 15.7154848,0.0827091336 15.4899684,0.0222822222 C15.2644521,-0.0381446892 15.0238291,0.0263300614 14.8587397,0.191419459 L7.98684429,7.06266129 L1.11560246,0.191419459 C0.950513065,0.0263300655 0.709890032,-0.038144682 0.484373726,0.0222822299 C0.258857421,0.0827091418 0.0827091349,0.258857428 0.022282223,0.484373733 C-0.0381446889,0.709890039 0.0263300586,0.950513072 0.191419452,1.11560247 L7.06266128,7.9868443 L0.191419452,14.8580861 C-0.0637866382,15.1132922 -0.0637866382,15.527063 0.191419452,15.7822691 C0.446625542,16.0374752 0.860396368,16.0374752 1.11560246,15.7822691 L7.98684429,8.9110273 L14.8580861,15.7829227 C15.0231755,15.9480121 15.2637985,16.0124869 15.4893149,15.95206 C15.7148312,15.891633 15.8909794,15.7154848 15.9514064,15.4899685 C16.0118333,15.2644521 15.9473585,15.0238291 15.7822691,14.8587397 L8.9110273,7.9868443 Z" id="路径"/></g></g></g></g></g></svg>