<?xml version="1.0" encoding="UTF-8"?><svg width="16px" height="16px" version="1.1" xmlns="http://www.w3.org/2000/svg" xmlns:xlink="http://www.w3.org/1999/xlink"><title>形状</title><g id="-多组学分析系统" stroke="none" stroke-width="1" fill="none" fill-rule="evenodd"><g id="可视化分析-步骤2（收起）" transform="translate(-1822.000000, -334.000000)" fill="#666666" fill-rule="nonzero"><g id="折叠" transform="translate(1822.000000, 331.000000)"><g id="z045" transform="translate(0.000000, 3.000000)"><path d="M7.96997445,2.01473868 L14.7269847,8.56230668 C15.018208,8.84450383 15.4903592,8.84450383 15.7815825,8.56230668 C16.0728058,8.28010952 16.0728058,7.82259209 15.7815825,7.54039494 L8,0 L0.218430034,7.54039494 C-0.0728100114,7.82259209 -0.0728100114,8.28009329 0.218430034,8.56230668 C0.50965333,8.84450383 0.981804563,8.84450383 1.27304461,8.56230668 L7.96997445,2.01473868 Z M7.98206758,9.25248622 L14.726968,15.7883359 C15.0181912,16.0705331 15.4903425,16.0705331 15.7815658,15.7883359 C16.0727891,15.5061388 16.0727891,15.0486213 15.7815658,14.7664242 L8,7.22606169 L0.218430034,14.7664404 C-0.0728100114,15.0486376 -0.0728100114,15.506155 0.218430034,15.7883521 C0.50965333,16.0705493 0.981804563,16.0705493 1.27304461,15.7883521 L7.98206758,9.25248622 Z" id="形状" transform="translate(8.000000, 8.000000) scale(1, -1) translate(-8.000000, -8.000000) "/></g></g></g></g></svg>