<?xml version="1.0" encoding="UTF-8"?><svg width="20px" height="20px" version="1.1" xmlns="http://www.w3.org/2000/svg" xmlns:xlink="http://www.w3.org/1999/xlink"><title>路径</title><g id="多组学分析系统" stroke="none" stroke-width="1" fill="none" fill-rule="evenodd"><g id="二级页面：数据统计-缩进效果" transform="translate(-1196.000000, -498.000000)" fill="#2F54EB" fill-rule="nonzero"><g id="编组-22" transform="translate(1146.000000, 440.000000)"><path d="M68.34,73.5633333 L63.9211111,71.8433333 C63.9211111,71.8433333 63.0788889,71.5166667 62.7511111,71.1955555 C62.5411111,70.9888889 62.5566667,70.5011111 62.7422222,69.8788889 C62.9288889,69.2566667 65.1933333,66.7266667 65.1933333,64.4288889 C65.1933333,60.8777778 62.8577778,58 59.9777778,58 C57.0944445,58 54.7588889,60.8777778 54.7588889,64.4277778 C54.7588889,66.6277778 56.7777778,69.2522222 57.0255555,69.73 C57.2766667,70.2077778 57.2144444,70.9344445 57.0188889,71.1544445 C56.7222222,71.4866667 55.6433333,71.8177778 55.6433333,71.8177778 L51.66,73.5888889 C50.7288889,73.9244445 50,74.8022222 50,75.79 L50,76.26 C50,77.34 50.8777778,78 51.9555555,78 L68.0444445,78 C69.1222222,78 70,77.34 70,76.26 L70,75.79 C70,74.8011111 69.2711111,73.8977778 68.34,73.5633333 Z" id="路径"/></g></g></g></svg>