<?xml version="1.0" encoding="UTF-8"?><svg width="11px" height="11px" version="1.1" xmlns="http://www.w3.org/2000/svg" xmlns:xlink="http://www.w3.org/1999/xlink"><title>文</title><g id="多组学系统分析" stroke="none" stroke-width="1" fill="none" fill-rule="evenodd"><g id="文件传输管理-文件传输详情列表" transform="translate(-1889.000000, -21.000000)" fill-rule="nonzero"><g id="中英切换1" transform="translate(1889.328000, 21.360000)"><path d="M0.144,1.368 L0.144,2.12 L1.368,2.12 C1.712,3.304 2.328,4.344 3.208,5.224 C2.36,5.952 1.296,6.48 0,6.816 L0.408,7.488 C1.728,7.104 2.84,6.512 3.744,5.712 C4.592,6.432 4.84024907,6.50894703 5.552,6.85303715 L5.976,6.21303715 C5.18481653,5.95122684 5.104,5.856 4.272,5.176 C5.024,4.352 5.592,3.336 5.976,2.12 L7.2,2.12 L7.2,1.368 L4.168,1.368 C3.92,0.84 3.648,0.384 3.36,0 L2.6,0.28 C2.904,0.624 3.16,0.984 3.368,1.368 L0.144,1.368 Z M2.096,2.12 L5.192,2.12 C4.872,3.128 4.384,3.992 3.736,4.704 C2.976,3.968 2.432,3.104 2.096,2.12 Z" id="形状" fill="#2F54EB"/><g id="A" transform="translate(4.672000, 4.928000)" fill="#202020"><path d="M2.2,0 L0,5.712 L0.928,5.712 L1.464,4.24 L3.92,4.24 L4.456,5.712 L5.392,5.712 L3.192,0 L2.2,0 Z M1.728,3.52 L2.68,0.936 L2.712,0.936 L3.656,3.52 L1.728,3.52 Z" id="形状"/></g></g></g></g></svg>